# xmcd CD database file
#
# Track frame offsets:
#	150
#	11563
#	25200
#	41168
#	56305
#	72993
#	85000
#	103700
#	124880
#	138215
#	150510
#	161963
#	177710
#	192533
#
# Disc length: 2718 seconds
#
# Revision: 0
# Processed by: cddbd v1.5.2PL0 Copyright (c) Steve Scherf et al.
# Submitted via: CDex 1.51
#
DISCID=c00a9c0e
DTITLE=Hasse Thor - Adios Amigo
DYEAR=1992
DGENRE=Country Rock
TTITLE0=Adios Amigo
TTITLE1=Du som drar omkring på Jorden
TTITLE2=Jag är inte den jag var förut
TTITLE3=Brevet
TTITLE4=Ett minne som står still
TTITLE5=I Norrland blir du rik
TTITLE6=Om den sommar
TTITLE7=Med vinden kom en sång
TTITLE8=Sänd mej ett minne
TTITLE9=Sommarvandring
TTITLE10=I love you because
TTITLE11=Alvar
TTITLE12=Midsommartankar
TTITLE13=Det här det är schlagermusik
EXTD=YEAR: 1992
EXTT0=
EXTT1=
EXTT2=
EXTT3=
EXTT4=
EXTT5=
EXTT6=
EXTT7=
EXTT8=
EXTT9=
EXTT10=
EXTT11=
EXTT12=
EXTT13=
PLAYORDER=
